<svg xmlns="http://www.w3.org/2000/svg">
<defs>
<font
   id="FontID1"
   horiz-adv-x="1050"
   font-variant="normal"
   style="fill-rule:nonzero"
   font-weight="400"
   horiz-origin-x="0"
   horiz-origin-y="0"
   vert-origin-x="512"
   vert-origin-y="768"
   vert-adv-y="1024">
	<font-face
   font-family="PF Euroset Medium"
   id="font-face1">
	</font-face>
   <missing-glyph
   id="missing-glyph1"><path
     d="M0 0z"
     id="path1" /></missing-glyph>
   <glyph
   unicode="θ"
   horiz-adv-x="800"
   id="glyph2"><path
     d="M741.008 183.008l0 316.992c0,144.004 -97.0036,189.993 -269.012,189.993l-145 0c-175.991,0 -268.996,-45.989 -268.996,-192.996l0 -315.997c0,-147.007 100.006,-188.997 270.008,-188.997l143.988 0c170.997,0 269.012,41.9906 269.012,191.004zm-136.007 215.99l-410.993 0 0 79.0031c0,90.9982 50.9988,112.997 145.995,112.997l120.994 0c92.0096,0 145,-22.9945 145,-112.001l-0.995638 -79.9987zm0.995638 -97.0036l0 -98.9949c0,-90.9982 -54.0015,-111.006 -145.995,-111.006l-120.994 0c-92.0096,0 -145,23.0103 -145,111.006l0 100.006 411.989 -1.01144z"
     id="path2" /></glyph>
   <glyph
   unicode="π"
   horiz-adv-x="799"
   id="glyph3"><path
     d="M724.998 0l0 484.007 -648.998 0 0 -484.007 136.007 0 0 387.003 376.999 0 0 -387.003 135.992 0z"
     id="path3" /></glyph>
   <glyph
   unicode="ν"
   horiz-adv-x="716"
   id="glyph4"><path
     d="M710.001 484.007l-149.994 0 -202.004 -380.002 -202.004 380.002 -149.994 0 266.989 -484.007 171.013 0 265.993 484.007z"
     id="path4" /></glyph>
   <glyph
   unicode="κ"
   horiz-adv-x="741"
   id="glyph5"><path
     d="M728.001 0.995638l-354.005 262.011 304.997 221 -3.99836 0 -190.989 0 -233.011 -171.013 -38.9879 0 0 171.013 -139.01 0 0 -484.007 140.006 0 0 214.995 36.9966 0 286.997 -214.995 187.006 0 3.99836 0.995638z"
     id="path5" /></glyph>
   <glyph
   unicode="η"
   horiz-adv-x="799"
   id="glyph6"><path
     d="M729.992 0l0 303.006c0,116 -70.9906,185.995 -187.986,185.995l-126.004 0c-104.005,0 -173.004,-14.0021 -205.007,-84.9927l-1.99128 0 0 79.9987 -136.007 0 0 -484.007 140.006 0 0 260.004c0,91.9938 47.0004,127.995 188.997,127.995l66.9922 0c126.004,0 121.01,-36.001 121.01,-94.9965l0 -293.002 139.99 0z"
     id="path6" /></glyph>
   <glyph
   unicode="δ"
   horiz-adv-x="810"
   id="glyph7"><path
     d="M757.001 183.008l0 103.989c0,148.998 -109.994,191.004 -253.998,191.004l-184.003 0c-66.9922,0 -84.9927,24.0059 -89.0069,47.9961l0 14.9978c0,39.9994 24.0059,59.0113 108.003,59.0113l143.008 0c72.9977,0 113.993,-6.00544 119.002,-52.0102l0 -3.00272 132.989 0c0,4.01416 -0.995638,21.0032 -0.995638,25.0016 -4.99399,75.0047 -50.9988,122.005 -209.005,122.005l-179.989 0c-184.999,0 -257.001,-39.9994 -257.001,-127.995l0 -28.0043c0,-33.9939 14.9978,-83.0015 70.9906,-96.008 -61.0026,-24.9858 -92.9894,-83.9971 -92.9894,-155.999l0 -102.993c0,-147.007 99.9905,-188.997 269.992,-188.997l154.008 0c170.997,0 268.996,41.9906 268.996,191.004zm-136.007 19.9918c0,-90.9982 -52.9901,-111.006 -145,-111.006l-130.998 0c-92.9894,0 -145.995,23.0103 -145.995,111.006l0 62.9939c0,84.0129 40.995,112.001 126.004,112.001l150.989 0c93.0052,0 145,-22.9945 145,-110.99l0 -64.0053z"
     id="path7" /></glyph>
   <glyph
   unicode="α"
   horiz-adv-x="803"
   id="glyph8"><path
     d="M729.992 0l0 484.007 -134 0 0 -57.0042 -1.99128 0c-27.0087,50.9988 -79.9987,65.0009 -174.995,65.0009l-108.999 0c-183.008,0 -255.01,-60.007 -255.01,-205.007l0 -86.9998c0,-139.99 52.0102,-207.994 261.995,-207.994l102.013 0c99.9905,0 137.999,18.9961 170.001,83.0015l1.99128 0 0 -75.0047 138.994 0zm-138.994 206.002c0,-96.008 -58.9955,-112.001 -141.997,-112.001l-126.999 0c-96.008,0 -130.998,25.9972 -130.998,108.999l0 76.0004c0,75.0047 21.0032,112.001 127.995,112.001l136.007 0c94.9965,0 135.992,-36.001 135.992,-115.004l0 -69.9949z"
     id="path8" /></glyph>
   <glyph
   unicode="ή"
   horiz-adv-x="799"
   id="glyph9"><path
     d="M586.004 743.995l-173.004 0 -137.999 -181.996 112.997 0 198.006 181.996zm143.988 -743.995l0 303.006c0,116 -70.9906,185.995 -187.986,185.995l-126.004 0c-104.005,0 -173.004,-14.0021 -205.007,-84.9927l-1.99128 0 0 79.9987 -136.007 0 0 -484.007 140.006 0 0 260.004c0,91.9938 47.0004,127.995 188.997,127.995l66.9922 0c126.004,0 121.01,-36.001 121.01,-94.9965l0 -293.002 139.99 0z"
     id="path9" /></glyph>
   <glyph
   unicode="ο"
   horiz-adv-x="810"
   id="glyph10"><path
     d="M750.996 183.008l0 120.994c0,144.004 -96.9878,189.993 -268.996,189.993l-155.003 0c-175.991,0 -268.996,-45.989 -268.996,-193.991l0 -119.002c0,-147.007 100.006,-188.997 270.008,-188.997l153.992 0c170.997,0 268.996,41.9906 268.996,191.004zm-135.992 19.9918c0,-90.9982 -53.0059,-111.006 -145,-111.006l-130.998 0c-92.0096,0 -145,23.0103 -145,111.006l0 79.9987c0,90.0025 50.9988,112.001 145.995,112.001l130.998 0c91.9938,0 145,-22.9945 145,-112.001l-0.995638 -79.9987z"
     id="path10" /></glyph>
   <glyph
   unicode="Κ"
   horiz-adv-x="1011"
   id="glyph11"><path
     d="M1004.99 0.995638l-502.987 353.009 453.995 330.994 1.99128 2.00708 -3.99836 0.995638 -228.001 0 -366.995 -272.995 -113.993 0 0 272.995 -160.013 0 0 -688.002 161.009 0 0 292.006 105.996 0 318.004 -227.005 90.9982 -65.0009 239.996 0 3.99836 0.995638z"
     id="path11" /></glyph>
   <glyph
   unicode="ι"
   horiz-adv-x="308"
   id="glyph12"><path
     d="M224.003 0l0 484.007 -139.01 0 0 -484.007 139.01 0z"
     id="path12" /></glyph>
   <glyph
   unicode=" "
   horiz-adv-x="488"
   id="glyph13" />
   <glyph
   unicode="τ"
   horiz-adv-x="624"
   id="glyph14"><path
     d="M597.004 160.993l0 56.0086 -119.002 0 0 -35.0054c0,-69.9949 -15.9934,-90.9982 -98.9949,-90.9982l-20.0076 0c-71.0064,0 -101.002,17.0049 -101.002,80.9944l0 214.015 320.011 0 0 97.9992 -563.01 0 0 -99.0107 105 0 0 -231.999c0,-106.992 69.9949,-160.993 209.005,-160.993l61.9982 0c169.006,0 206.002,73.9933 206.002,168.99z"
     id="path13" /></glyph>
   <glyph
   unicode="ρ"
   horiz-adv-x="800"
   id="glyph15"><path
     d="M745.006 200.992l0 113.013c0,134 -93.0052,178.994 -249.004,178.994l-151.005 0c-174.995,0 -271.999,-43.9977 -271.999,-192.996l0 -470.004 139.01 0 0 245.006 1.99128 0c28.9999,-64.0053 68.0037,-83.0015 167.994,-83.0015l102.013 0c210.996,0 260.999,68.9993 260.999,208.989zm-136.007 4.01416c0,-86.9998 -47.0004,-109.014 -137.999,-109.014l-119.002 0c-88.9911,0 -141.997,20.0076 -141.997,111.006l0 78.0075c0,87.9954 51.9944,107.987 144.004,107.987l110.99 0c90.9982,0 145,-20.9874 145,-108.999l-0.995638 -78.9873z"
     id="path14" /></glyph>
   <glyph
   unicode="Ο"
   horiz-adv-x="1100"
   id="glyph16"><path
     d="M1032 246.002l0 195.998c0,188.002 -92.0096,253.003 -289.004,253.003l-387.003 0c-197.99,0 -287.992,-65.0009 -287.992,-253.003l0 -196.994c0,-188.002 91.9938,-253.003 289.004,-253.003l385.992 0c196.994,0 289.004,66.9922 289.004,253.998zm-163.996 14.9978c0,-108.999 -48.0119,-142.993 -148.002,-142.993l-340.998 0c-100.006,0 -148.002,33.9939 -148.002,142.993l0 166.003c0,104.005 47.9961,141.997 155.003,141.997l327.992 0c107.007,0 155.003,-39.0037 155.003,-141.997l-0.995638 -166.003z"
     id="path15" /></glyph>
   <glyph
   unicode="λ"
   horiz-adv-x="799"
   id="glyph17"><path
     d="M728.997 0l0 528.004c-0.995638,108.003 -86.0042,161.989 -239.001,161.989l-184.999 0c-127.995,0 -206.998,-32.9983 -214.995,-127.995 -0.995638,-15.9934 0,-32.9983 0,-48.9917l130.998 0 0 24.9858c0,38.0081 18.9961,54.0015 97.0036,54.0015l116 0c130.998,0 152.996,-37.9923 157.99,-109.994 1.01144,-14.9978 1.01144,-26.9929 1.01144,-36.9966 0,-20.0076 0.995638,-43.0021 0.995638,-54.0015 -35.0054,64.0053 -91.9938,84.9927 -178.994,84.9927l-105 0c-164.012,0 -231.004,-65.9966 -231.004,-168.99l0 -307.004 135.992 0 0 263.007c0,73.9933 20.0076,108.999 159.002,111.986l20.0076 0c152.001,0 197.99,-34.9896 197.99,-131.993l0 -242.999 137.003 0z"
     id="path16" /></glyph>
  </font>
  <font
   id="FontID0"
   horiz-adv-x="726"
   font-variant="normal"
   style="fill-rule:nonzero"
   font-weight="400"
   horiz-origin-x="0"
   horiz-origin-y="0"
   vert-origin-x="512"
   vert-origin-y="768"
   vert-adv-y="1024">
	<font-face
   font-family="BankGothic Lt BT"
   id="font-face17">
	</font-face>
   <missing-glyph
   id="missing-glyph17"><path
     d="M0 0z"
     id="path17" /></missing-glyph>
   <glyph
   unicode="t"
   horiz-adv-x="524"
   id="glyph18"><path
     d="M302 360.999l0 -360.999 -79.9998 0 0 360.999 -199.999 0 0 63.0002 480.998 0 0 -63.0002 -200.999 0z"
     id="path18" /></glyph>
   <glyph
   unicode="h"
   horiz-adv-x="693"
   id="glyph19"><path
     d="M97.999 0l0 422.999 79.9998 0 0 -169.999 338.001 0 0 169.999 79.9998 0 0 -422.999 -79.9998 0 0 189.001 -338.001 0 0 -189.001 -79.9998 0z"
     id="path19" /></glyph>
   <glyph
   unicode="e"
   horiz-adv-x="580"
   id="glyph20"><path
     d="M97.999 0l0 423.999 427.001 0 0 -63.0002 -347.001 0 0 -108.998 209.002 0 0 -63.0002 -209.002 0 0 -127 351.002 0 0 -62.0005 -431.002 0z"
     id="path20" /></glyph>
   <glyph
   unicode="N"
   horiz-adv-x="837"
   id="glyph21"><path
     d="M134.001 0l0 516.001 54.1651 0 386 -345.168c8.83465,-7.83257 18.1681,-17.166 28.1667,-28.3329 9.8345,-11.0006 20.0016,-23.1674 30.5011,-36.5003 -2.66702,16.4987 -4.50046,33.8333 -5.83286,51.9992 -1.33462,17.9996 -1.99971,43.0005 -1.99971,74.834l0 283.168 78.9997 0 0 -516.001 -48.3345 0 -396.333 358.833c-1.83344,1.66717 -4.83301,4.16791 -8.66616,7.83479 -19.6668,17.4986 -34.1658,34.3321 -43.4993,50.1657 1.99971,-15.5011 3.33211,-32.1661 4.33197,-49.9994 0.999856,-17.6671 1.50089,-38.6685 1.50089,-62.6672l0 -304.167 -78.9997 0z"
     id="path21" /></glyph>
   <glyph
   unicode="V"
   horiz-adv-x="690"
   id="glyph22"><path
     d="M314.666 0l-281.667 516.001 92.8336 0 228 -430 217.667 430 85.4999 0 -270.001 -516.001 -72.3333 0z"
     id="path22" /></glyph>
   <glyph
   unicode=" "
   horiz-adv-x="373"
   id="glyph23" />
   <glyph
   unicode="r"
   horiz-adv-x="612"
   id="glyph24"><path
     d="M403.668 362.001l-225.669 0 0 -137.002 225.669 0c17.8317,0 29.8331,3.0018 35.9985,8.83493 6.16827,5.83314 9.33475,17.3318 9.33475,34.1667l0 50.9988c0,15.6677 -3.33405,26.6666 -9.83457,33.1671 -6.50052,6.50052 -18.3344,9.83457 -35.4986,9.83457zm-305.669 -362.001l0 423.999 340.835 0c31.6648,0 54.4975,-6.49763 68.3335,-19.3311 13.8331,-12.8335 20.8335,-33.6669 20.8335,-62.6679l0 -95.0001c0,-28.6659 -7.00034,-49.3317 -20.8335,-62.0005 -13.836,-12.6659 -36.6687,-18.9989 -68.3335,-18.9989l-56.1674 0 187.334 -166 -107.001 0 -169.167 166 -115.834 0 0 -166 -79.9998 0z"
     id="path23" /></glyph>
   <glyph
   unicode="o"
   horiz-adv-x="690"
   id="glyph25"><path
     d="M168 63.9998l354.001 0 0 296.999 -354.001 0 0 -296.999zm-79.9998 259.333c0,38.8327 7.33259,65.3346 22.0007,79.5 14.6652,14.1683 41.8316,21.1657 81.999,21.1657l306.001 0c40.1646,0 67.3339,-6.99745 81.999,-21.1657 14.6681,-14.1654 22.0007,-40.6673 22.0007,-79.5l0 -223.167c0,-38.8327 -7.16791,-65.167 -21.6684,-79.1648 -14.4976,-14.0007 -41.9992,-21.001 -82.3313,-21.001l-306.001 0c-40.6673,0 -68.1659,7.00034 -82.4989,20.8335 -14.3329,13.8331 -21.5008,40.1675 -21.5008,79.3324l0 223.167z"
     id="path24" /></glyph>
  </font>
</defs>
</svg>
